{
  "accessors": [
    {
      "bufferView": 2,
      "componentType": 5126,
      "count": 5950,
      "max": [
        0.4974701404571533,
        1.208141565322876,
        0.4974701404571533
      ],
      "min": [
        -0.4974701404571533,
        -0.0015069313813000917,
        -0.4974701404571533
      ],
      "type": "VEC3"
    },
    {
      "bufferView": 2,
      "byteOffset": 71400,
      "componentType": 5126,
      "count": 5950,
      "max": [
        1.0,
        1.0,
        1.0
      ],
      "min": [
        -1.0,
        -1.0,
        -1.0
      ],
      "type": "VEC3"
    },
    {
      "bufferView": 3,
      "componentType": 5126,
      "count": 5950,
      "max": [
        1.0,
        1.0,
        1.0,
        1.0
      ],
      "min": [
        -1.0,
        -1.0,
        -1.0,
        -1.0
      ],
      "type": "VEC4"
    },
    {
      "bufferView": 1,
      "componentType": 5126,
      "count": 5950,
      "max": [
        0.9981235861778259,
        0.996532142162323
      ],
      "min": [
        0.0014995415695011616,
        0.0014981557615101337
      ],
      "type": "VEC2"
    },
    {
      "bufferView": 1,
      "byteOffset": 47600,
      "componentType": 5126,
      "count": 5950,
      "max": [
        0.9981235861778259,
        0.996532142162323
      ],
      "min": [
        0.0014995415695011616,
        0.0014981557615101337
      ],
      "type": "VEC2"
    },
    {
      "bufferView": 1,
      "byteOffset": 95200,
      "componentType": 5126,
      "count": 5950,
      "max": [
        0.9981235861778259,
        0.996532142162323
      ],
      "min": [
        0.0014995415695011616,
        0.0014981557615101337
      ],
      "type": "VEC2"
    },
    {
      "bufferView": 1,
      "byteOffset": 142800,
      "componentType": 5126,
      "count": 5950,
      "max": [
        0.9981235861778259,
        0.996532142162323
      ],
      "min": [
        0.0014995415695011616,
        0.0014981557615101337
      ],
      "type": "VEC2"
    },
    {
      "bufferView": 1,
      "byteOffset": 190400,
      "componentType": 5126,
      "count": 5950,
      "max": [
        0.9981235861778259,
        0.996532142162323
      ],
      "min": [
        0.0014995415695011616,
        0.0014981557615101337
      ],
      "type": "VEC2"
    },
    {
      "bufferView": 0,
      "componentType": 5125,
      "count": 23496,
      "type": "SCALAR"
    }
  ],
  "asset": {
    "extras": {
      "author": "Igrium (https://sketchfab.com/Sam54123)",
      "license": "CC-BY-4.0 (http://creativecommons.org/licenses/by/4.0/)",
      "source": "https://sketchfab.com/3d-models/portal-gun-pedestal-04fd0e419a904ba18bd794c379b2794e",
      "title": "Portal Gun Pedestal"
    },
    "generator": "Sketchfab-15.58.0",
    "version": "2.0"
  },
  "bufferViews": [
    {
      "buffer": 0,
      "byteLength": 93984,
      "name": "floatBufferViews",
      "target": 34963
    },
    {
      "buffer": 0,
      "byteLength": 238000,
      "byteOffset": 93984,
      "byteStride": 8,
      "name": "floatBufferViews",
      "target": 34962
    },
    {
      "buffer": 0,
      "byteLength": 142800,
      "byteOffset": 331984,
      "byteStride": 12,
      "name": "floatBufferViews",
      "target": 34962
    },
    {
      "buffer": 0,
      "byteLength": 95200,
      "byteOffset": 474784,
      "byteStride": 16,
      "name": "floatBufferViews",
      "target": 34962
    }
  ],
  "buffers": [
    {
      "byteLength": 569984,
      "uri": "scene.bin"
    }
  ],
  "extensionsUsed": [
    "KHR_materials_emissive_strength"
  ],
  "images": [
    {
      "uri": "textures/Pedestal_baseColor.png"
    },
    {
      "uri": "textures/Pedestal_metallicRoughness.png"
    },
    {
      "uri": "textures/Pedestal_emissive.png"
    },
    {
      "uri": "textures/Pedestal_normal.png"
    }
  ],
  "materials": [
    {
      "emissiveFactor": [
        1.0,
        1.0,
        1.0
      ],
      "emissiveTexture": {
        "index": 2
      },
      "extensions": {
        "KHR_materials_emissive_strength": {
          "emissiveStrength": 3.946678694639831
        }
      },
      "name": "Pedestal",
      "normalTexture": {
        "index": 3
      },
      "pbrMetallicRoughness": {
        "baseColorTexture": {
          "index": 0
        },
        "metallicRoughnessTexture": {
          "index": 1
        }
      }
    }
  ],
  "meshes": [
    {
      "name": "Object_0",
      "primitives": [
        {
          "attributes": {
            "NORMAL": 1,
            "POSITION": 0,
            "TANGENT": 2,
            "TEXCOORD_0": 3,
            "TEXCOORD_1": 4,
            "TEXCOORD_2": 5,
            "TEXCOORD_3": 6,
            "TEXCOORD_4": 7
          },
          "indices": 8,
          "material": 0,
          "mode": 4
        }
      ]
    }
  ],
  "nodes": [
    {
      "children": [
        1
      ],
      "matrix": [
        1.0,
        0.0,
        0.0,
        0.0,
        0.0,
        2.220446049250313e-16,
        -1.0,
        0.0,
        0.0,
        1.0,
        2.220446049250313e-16,
        0.0,
        0.0,
        0.0,
        0.0,
        1.0
      ],
      "name": "Sketchfab_model"
    },
    {
      "children": [
        2
      ],
      "name": "root"
    },
    {
      "children": [
        3
      ],
      "matrix": [
        1.0,
        0.0,
        0.0,
        0.0,
        0.0,
        2.220446049250313e-16,
        1.0,
        0.0,
        0.0,
        -1.0,
        2.220446049250313e-16,
        0.0,
        0.0,
        0.0,
        0.0,
        1.0
      ],
      "name": "GLTF_SceneRootNode"
    },
    {
      "children": [
        4
      ],
      "matrix": [
        0.0,
        0.0,
        1.0,
        0.0,
        -0.0,
        1.0,
        0.0,
        0.0,
        -1.0,
        -0.0,
        0.0,
        0.0,
        0.0,
        0.0,
        0.0,
        1.0
      ],
      "name": "PortalGun_Pedestal_0"
    },
    {
      "mesh": 0,
      "name": "Object_4"
    }
  ],
  "samplers": [
    {
      "magFilter": 9729,
      "minFilter": 9987,
      "wrapS": 10497,
      "wrapT": 10497
    }
  ],
  "scene": 0,
  "scenes": [
    {
      "name": "Sketchfab_Scene",
      "nodes": [
        0
      ]
    }
  ],
  "textures": [
    {
      "sampler": 0,
      "source": 0
    },
    {
      "sampler": 0,
      "source": 1
    },
    {
      "sampler": 0,
      "source": 2
    },
    {
      "sampler": 0,
      "source": 3
    }
  ]
}
